<?xml version="1.0" encoding="iso-8859-1"?>
<!-- Generator: Adobe Illustrator 16.0.0, SVG Export Plug-In . SVG Version: 6.00 Build 0)  -->
<!DOCTYPE svg PUBLIC "-//W3C//DTD SVG 1.1//EN" "http://www.w3.org/Graphics/SVG/1.1/DTD/svg11.dtd">
<svg version="1.1" xmlns="http://www.w3.org/2000/svg" xmlns:xlink="http://www.w3.org/1999/xlink" x="0px" y="0px"
	 width="284.417px" height="192.347px" viewBox="0 0 284.417 192.347" style="enable-background:new 0 0 284.417 192.347;"
	 xml:space="preserve">
<g id="_x30_0">
	<g>
		<path style="fill:#303679;" d="M222.209,90c-46.869,0-85-38.131-85-85c0-2.761,2.239-5,5-5s5,2.239,5,5c0,41.355,33.645,75,75,75
			c12.088,0,24.732-8.77,31.466-21.823c5.526-10.715,5.565-21.694,0.104-29.369c-1.601-2.25-1.074-5.371,1.176-6.973
			c2.249-1.598,5.371-1.075,6.973,1.176c7.673,10.784,7.91,25.644,0.634,39.75C254.158,79.054,237.941,90,222.209,90z"/>
	</g>
</g>
<g id="Capa_1">
</g>
</svg>
