<?xml version="1.0" encoding="iso-8859-1"?>
<!-- Generator: Adobe Illustrator 16.0.0, SVG Export Plug-In . SVG Version: 6.00 Build 0)  -->
<!DOCTYPE svg PUBLIC "-//W3C//DTD SVG 1.1//EN" "http://www.w3.org/Graphics/SVG/1.1/DTD/svg11.dtd">
<svg version="1.1" xmlns="http://www.w3.org/2000/svg" xmlns:xlink="http://www.w3.org/1999/xlink" x="0px" y="0px"
	 width="284.417px" height="192.347px" viewBox="0 0 284.417 192.347" style="enable-background:new 0 0 284.417 192.347;"
	 xml:space="preserve">
<g id="_x30_4">
	<g>
		<path style="fill:#303679;" d="M223.517,94.984c-3.638,0-7.327-0.323-11.046-0.976C168.157,86.24,137.208,49.639,137.208,5
			c0-2.761,2.239-5,5-5s5,2.239,5,5c0,20.027,6.674,38.251,19.301,52.699c12.046,13.784,28.981,23.181,47.688,26.46
			c18.639,3.267,45.224-3.625,58.812-33.803c1.134-2.519,4.097-3.64,6.612-2.507c2.519,1.134,3.641,4.095,2.507,6.612
			c-5.483,12.177-14.369,22.869-25.02,30.107C246.97,91.459,235.52,94.984,223.517,94.984z"/>
	</g>
</g>
<g id="Capa_1">
</g>
</svg>
