<?xml version="1.0" encoding="iso-8859-1"?>
<!-- Generator: Adobe Illustrator 16.0.0, SVG Export Plug-In . SVG Version: 6.00 Build 0)  -->
<!DOCTYPE svg PUBLIC "-//W3C//DTD SVG 1.1//EN" "http://www.w3.org/Graphics/SVG/1.1/DTD/svg11.dtd">
<svg version="1.1" xmlns="http://www.w3.org/2000/svg" xmlns:xlink="http://www.w3.org/1999/xlink" x="0px" y="0px"
	 width="284.417px" height="192.347px" viewBox="0 0 284.417 192.347" style="enable-background:new 0 0 284.417 192.347;"
	 xml:space="preserve">
<g id="_x30_6">
	<g>
		<path style="fill:#303679;" d="M236.103,110.151c-10.98,0-23.026-2.529-35.689-7.644c-17.673-7.137-33.585-20.182-44.805-36.732
			c-12.037-17.755-18.4-38.771-18.4-60.775c0-2.761,2.239-5,5-5s5,2.239,5,5c0,39.02,22.886,74.479,56.949,88.236
			c27.735,11.201,51.625,8.643,65.544-7.02c1.835-2.063,4.995-2.251,7.059-0.416c2.064,1.834,2.25,4.995,0.416,7.059
			C266.99,104.321,252.774,110.151,236.103,110.151z"/>
	</g>
</g>
<g id="Capa_1">
</g>
</svg>
