<?xml version="1.0" encoding="iso-8859-1"?>
<!-- Generator: Adobe Illustrator 16.0.0, SVG Export Plug-In . SVG Version: 6.00 Build 0)  -->
<!DOCTYPE svg PUBLIC "-//W3C//DTD SVG 1.1//EN" "http://www.w3.org/Graphics/SVG/1.1/DTD/svg11.dtd">
<svg version="1.1" xmlns="http://www.w3.org/2000/svg" xmlns:xlink="http://www.w3.org/1999/xlink" x="0px" y="0px"
	 width="284.417px" height="192.347px" viewBox="0 0 284.417 192.347" style="enable-background:new 0 0 284.417 192.347;"
	 xml:space="preserve">
<g id="_x31_1">
	<g>
		<path style="fill:#303679;" d="M59.291,99.454c-10.268,0-20.438-2.23-29.738-6.623C16.225,86.537,5.614,76.339,0.441,64.85
			c-1.134-2.518-0.012-5.478,2.506-6.612c2.517-1.133,5.479-0.011,6.612,2.507c8.499,18.873,35.894,34.44,65.338,26.685
			c16.845-4.438,32.351-14.679,43.663-28.834C130.76,43.327,137.208,24.794,137.208,5c0-2.761,2.239-5,5-5s5,2.239,5,5
			c0,22.087-7.206,42.778-20.837,59.837c-12.644,15.822-30.019,27.28-48.927,32.262C71.468,98.673,65.361,99.454,59.291,99.454z"/>
	</g>
</g>
<g id="Capa_1">
</g>
</svg>
