<?xml version="1.0" encoding="iso-8859-1"?>
<!-- Generator: Adobe Illustrator 16.0.0, SVG Export Plug-In . SVG Version: 6.00 Build 0)  -->
<!DOCTYPE svg PUBLIC "-//W3C//DTD SVG 1.1//EN" "http://www.w3.org/Graphics/SVG/1.1/DTD/svg11.dtd">
<svg version="1.1" xmlns="http://www.w3.org/2000/svg" xmlns:xlink="http://www.w3.org/1999/xlink" x="0px" y="0px"
	 width="284.417px" height="192.347px" viewBox="0 0 284.417 192.347" style="enable-background:new 0 0 284.417 192.347;"
	 xml:space="preserve">
<g id="_x31_2">
	<g>
		<path style="fill:#303679;" d="M60.9,94.984c-12.004,0-23.452-3.524-33.592-10.415C16.658,77.331,7.773,66.639,2.29,54.462
			c-1.134-2.518-0.012-5.479,2.506-6.612c2.517-1.133,5.479-0.012,6.612,2.507C24.997,80.534,51.58,87.423,70.22,84.159
			c18.706-3.279,35.642-12.676,47.687-26.46C130.534,43.251,137.208,25.027,137.208,5c0-2.761,2.239-5,5-5s5,2.239,5,5
			c0,44.639-30.949,81.24-75.263,89.009C68.228,94.661,64.538,94.984,60.9,94.984z"/>
	</g>
</g>
<g id="Capa_1">
</g>
</svg>
