<?xml version="1.0" encoding="iso-8859-1"?>
<!-- Generator: Adobe Illustrator 16.0.0, SVG Export Plug-In . SVG Version: 6.00 Build 0)  -->
<!DOCTYPE svg PUBLIC "-//W3C//DTD SVG 1.1//EN" "http://www.w3.org/Graphics/SVG/1.1/DTD/svg11.dtd">
<svg version="1.1" xmlns="http://www.w3.org/2000/svg" xmlns:xlink="http://www.w3.org/1999/xlink" x="0px" y="0px"
	 width="284.417px" height="192.347px" viewBox="0 0 284.417 192.347" style="enable-background:new 0 0 284.417 192.347;"
	 xml:space="preserve">
<g id="_x31_4">
	<g>
		<path style="fill:#303679;" d="M62.208,90c-17.044,0-35.238-11.574-44.245-28.146c-6.861-12.623-6.956-25.789-0.259-36.121
			c1.501-2.316,4.598-2.979,6.916-1.476c2.317,1.502,2.978,4.598,1.476,6.915c-6.354,9.804-2.318,20.439,0.653,25.906
			C33.968,70.36,48.881,80,62.208,80c41.355,0,75-33.645,75-75c0-2.761,2.239-5,5-5s5,2.239,5,5
			C147.209,51.869,109.078,90,62.208,90z"/>
	</g>
</g>
<g id="Capa_1">
</g>
</svg>
