<?xml version="1.0" encoding="iso-8859-1"?>
<!-- Generator: Adobe Illustrator 16.0.0, SVG Export Plug-In . SVG Version: 6.00 Build 0)  -->
<!DOCTYPE svg PUBLIC "-//W3C//DTD SVG 1.1//EN" "http://www.w3.org/Graphics/SVG/1.1/DTD/svg11.dtd">
<svg version="1.1" xmlns="http://www.w3.org/2000/svg" xmlns:xlink="http://www.w3.org/1999/xlink" x="0px" y="0px"
	 width="284.417px" height="192.347px" viewBox="0 0 284.417 192.347" style="enable-background:new 0 0 284.417 192.347;"
	 xml:space="preserve">
<g id="_x32_1">
	<g>
		<path style="fill:#303679;" d="M48.314,110.151c-16.674,0-30.887-5.829-41.074-17.292c-1.834-2.063-1.648-5.225,0.416-7.059
			c2.064-1.835,5.225-1.649,7.059,0.416c13.919,15.662,37.809,18.221,65.544,7.02C114.322,79.479,137.208,44.02,137.208,5
			c0-2.761,2.239-5,5-5s5,2.239,5,5c0,22.004-6.363,43.021-18.4,60.775c-11.22,16.551-27.132,29.596-44.805,36.732
			C71.343,107.621,59.294,110.151,48.314,110.151z"/>
	</g>
</g>
<g id="Capa_1">
</g>
</svg>
