<?xml version="1.0" encoding="iso-8859-1"?>
<!-- Generator: Adobe Illustrator 16.0.0, SVG Export Plug-In . SVG Version: 6.00 Build 0)  -->
<!DOCTYPE svg PUBLIC "-//W3C//DTD SVG 1.1//EN" "http://www.w3.org/Graphics/SVG/1.1/DTD/svg11.dtd">
<svg version="1.1" xmlns="http://www.w3.org/2000/svg" xmlns:xlink="http://www.w3.org/1999/xlink" x="0px" y="0px"
	 width="284.417px" height="192.347px" viewBox="0 0 284.417 192.347" style="enable-background:new 0 0 284.417 192.347;"
	 xml:space="preserve">
<g id="_x32_2">
	<g>
		<path style="fill:#303679;" d="M37.254,145.82c-2.347,0-4.441-1.661-4.904-4.051c-0.524-2.712,1.248-5.335,3.959-5.859
			c16.744-3.239,37.165-9.587,61.669-32.104C122.91,80.896,137.208,44.883,137.208,5c0-2.761,2.239-5,5-5s5,2.239,5,5
			c0,42.674-15.478,81.371-42.464,106.169c-26.343,24.206-48.417,31.054-66.536,34.56C37.888,145.79,37.569,145.82,37.254,145.82z"
			/>
	</g>
	<g>
		<path style="fill:#303679;" d="M33.58,143.885c2.5,5.5,8,18,14.5,15.5c-7.5-7-5-14.5,5.5-10c0-7.5,5.5-4,9.5-6.5
			c3.5-1.5,9.5-8,11-11.5c-6.5,0-13.5,5-20.5,6L33.58,143.885z"/>
	</g>
	<g>
		<path style="fill:#303679;" d="M37.254,145.82c-2.347,0-4.441-1.661-4.904-4.051c-0.524-2.712,1.248-5.335,3.959-5.859
			c16.744-3.239,37.165-9.587,61.669-32.104C122.91,80.896,137.208,44.883,137.208,5c0-2.761,2.239-5,5-5s5,2.239,5,5
			c0,42.674-15.478,81.371-42.464,106.169c-26.343,24.206-48.417,31.054-66.536,34.56C37.888,145.79,37.569,145.82,37.254,145.82z"
			/>
	</g>
	<g>
		<path style="fill:#303679;" d="M34.158,143.45c-5-3.5-12-10.5-11.5-17c6,0.5,11,6.5,17.5,7c0-2,1-3,0.5-5c4.5-2,5.5,1,9.5,1.5
			c6.5,0.5,7.5-2.5,12-5c7-4,11.5-2.5,20-2.5c-6.5,5-16,6.5-23,10.5c-7,3.5-14.5,6-21.5,9L34.158,143.45z"/>
	</g>
</g>
<g id="Capa_1">
</g>
</svg>
