<?xml version="1.0" encoding="iso-8859-1"?>
<!-- Generator: Adobe Illustrator 16.0.0, SVG Export Plug-In . SVG Version: 6.00 Build 0)  -->
<!DOCTYPE svg PUBLIC "-//W3C//DTD SVG 1.1//EN" "http://www.w3.org/Graphics/SVG/1.1/DTD/svg11.dtd">
<svg version="1.1" xmlns="http://www.w3.org/2000/svg" xmlns:xlink="http://www.w3.org/1999/xlink" x="0px" y="0px"
	 width="284.417px" height="192.347px" viewBox="0 0 284.417 192.347" style="enable-background:new 0 0 284.417 192.347;"
	 xml:space="preserve">
<g id="_x32_3">
	<g>
		<path style="fill:#303679;" d="M142.029,192.347c-2.761,0-5-2.238-5-5l0-71.205c0-16.254,0.04-31.999,0.082-48.706
			c0.048-19.164,0.098-38.98,0.098-62.436c0-2.761,2.239-5,5-5s5,2.239,5,5c0,23.468-0.051,43.29-0.098,62.46
			c-0.043,16.699-0.082,32.437-0.082,48.682v71.205C147.029,190.108,144.79,192.347,142.029,192.347z"/>
	</g>
	<g>
		<path style="fill:#303679;" d="M142.08,191.385c11.666,0,36-0.333,43.334-11.666c-5-0.334-27,5.333-30.668-0.334
			c-2.666-4,11-9,13.668-13c-4.668-2.333-11.668,3.334-16.668,0c1.334-1.666,7-4.666,7-7c-0.332-3-8.666-3.333-9-7.333
			c0-3.333,3.668-4.333,3-8c-0.332-4-2.332-8.333-3-12c-0.666-7-1-14.667-1-22.333c-0.332-4.667-1-14-5-16.667L142.08,191.385z"/>
	</g>
	<g>
		<path style="fill:#303679;" d="M192.414,174.385c3.332-0.666,6.666-3,9.666-2.333c-0.666,3.667-9.334,9.333-10.666,4
			L192.414,174.385z"/>
	</g>
	<g>
		<path style="fill:#303679;" d="M175.746,162.385c-0.666,0.334-1.666,1.334-2.332,1.667c2.332,1.667,8.332,0.333,3.666-1.667
			H175.746z"/>
	</g>
	<g>
		<path style="fill:#303679;" d="M213.746,163.719c4-1.334,6.668-4.667,10.668-6c-1,6-10.668,12-16.334,11.333
			c0.334-1.667,1.334-3,3-3.667L213.746,163.719z"/>
	</g>
	<g>
		<path style="fill:#303679;" d="M184.08,158.385c-1.666,2.333,0,3.667,2,2c0-0.333-0.666-0.667-0.666-1L184.08,158.385z"/>
	</g>
	<g>
		<path style="fill:#303679;" d="M142.029,192.347c-2.761,0-5-2.238-5-5l0-71.205c0-16.254,0.04-31.999,0.082-48.706
			c0.048-19.164,0.098-38.98,0.098-62.436c0-2.761,2.239-5,5-5s5,2.239,5,5c0,23.468-0.051,43.29-0.098,62.46
			c-0.043,16.699-0.082,32.437-0.082,48.682v71.205C147.029,190.108,144.79,192.347,142.029,192.347z"/>
	</g>
	<g>
		<path style="fill:#303679;" d="M143.413,191.385c-11.667,0-36-0.333-43.333-11.666c5-0.334,27,5.333,30.667-0.334
			c2.667-4-11-9-13.667-13c4.667-2.333,11.667,3.334,16.667,0c-1.333-1.666-7-4.666-7-7c0.333-3,8.667-3.333,9-7.333
			c0-3.333-3.667-4.333-3-8c0.333-4,2.333-8.333,3-12c0.667-7,1-14.667,1-22.333c0.333-4.667,1-14,5-16.667L143.413,191.385z"/>
	</g>
	<g>
		<path style="fill:#303679;" d="M93.747,176.052c-4.333-2-8-5.333-12-7.333c-1,3.333,9,9.666,12.667,8.666
			c-0.333-1.333-1-1.333-1.333-2L93.747,176.052z"/>
	</g>
	<g>
		<path style="fill:#303679;" d="M109.414,163.052c-1.333-0.667-2.333-0.667-3.667-0.667c0.333,2.334,3.333,4,4.667,1.667
			L109.414,163.052z"/>
	</g>
	<g>
		<path style="fill:#303679;" d="M125.08,146.052c-2.667,2,0,4,2.333,2.333c0-0.666-0.667-1.333-1-1.666L125.08,146.052z"/>
	</g>
</g>
<g id="Capa_1">
</g>
</svg>
