<?xml version="1.0" encoding="iso-8859-1"?>
<!-- Generator: Adobe Illustrator 16.0.0, SVG Export Plug-In . SVG Version: 6.00 Build 0)  -->
<!DOCTYPE svg PUBLIC "-//W3C//DTD SVG 1.1//EN" "http://www.w3.org/Graphics/SVG/1.1/DTD/svg11.dtd">
<svg version="1.1" xmlns="http://www.w3.org/2000/svg" xmlns:xlink="http://www.w3.org/1999/xlink" x="0px" y="0px"
	 width="284.417px" height="192.347px" viewBox="0 0 284.417 192.347" style="enable-background:new 0 0 284.417 192.347;"
	 xml:space="preserve">
<g id="_x32_4">
	<g>
		<path style="fill:#303679;" d="M247.163,145.82c-0.315,0-0.634-0.03-0.955-0.092c-18.119-3.506-40.193-10.354-66.536-34.56
			C152.686,86.371,137.208,47.674,137.208,5c0-2.761,2.239-5,5-5s5,2.239,5,5c0,39.883,14.299,75.896,39.229,98.806
			c24.505,22.518,44.925,28.865,61.669,32.104c2.711,0.524,4.484,3.147,3.959,5.859C251.604,144.159,249.51,145.82,247.163,145.82z"
			/>
	</g>
	<g>
		<path style="fill:#303679;" d="M250.002,144.95c5-3.5,12-10.5,11.5-17c-6,0.5-11,6.5-17.5,7c0-2-1-3-0.5-5c-4.5-2-5.5,1-9.5,1.5
			c-6.5,0.5-7.5-2.5-12-5c-7-4-11.5-2.5-20-2.5c6.5,5,16,6.5,23,10.5c7,3.5,14.5,6,21.5,9L250.002,144.95z"/>
	</g>
	<g>
		<path style="fill:#303679;" d="M250.002,144.95c5-3.5,12-10.5,11.5-17c-6,0.5-11,6.5-17.5,7c0-2-1-3-0.5-5c-4.5-2-5.5,1-9.5,1.5
			c-6.5,0.5-7.5-2.5-12-5c-7-4-11.5-2.5-20-2.5c6.5,5,16,6.5,23,10.5c7,3.5,14.5,6,21.5,9L250.002,144.95z"/>
	</g>
	<g>
		<path style="fill:#303679;" d="M247.163,145.82c-0.315,0-0.634-0.03-0.955-0.092c-18.119-3.506-40.193-10.354-66.536-34.56
			C152.686,86.371,137.208,47.674,137.208,5c0-2.761,2.239-5,5-5s5,2.239,5,5c0,39.883,14.299,75.896,39.229,98.806
			c24.505,22.518,44.925,28.865,61.669,32.104c2.711,0.524,4.484,3.147,3.959,5.859C251.604,144.159,249.51,145.82,247.163,145.82z"
			/>
	</g>
	<g>
		<path style="fill:#303679;" d="M250.58,143.885c-2.5,5.5-8,18-14.5,15.5c7.5-7,5-14.5-5.5-10c0-7.5-5.5-4-9.5-6.5
			c-3.5-1.5-9.5-8-11-11.5c6.5,0,13.5,5,20.5,6L250.58,143.885z"/>
	</g>
</g>
<g id="Capa_1">
</g>
</svg>
