<?xml version="1.0" encoding="iso-8859-1"?>
<!-- Generator: Adobe Illustrator 16.0.0, SVG Export Plug-In . SVG Version: 6.00 Build 0)  -->
<!DOCTYPE svg PUBLIC "-//W3C//DTD SVG 1.1//EN" "http://www.w3.org/Graphics/SVG/1.1/DTD/svg11.dtd">
<svg version="1.1" xmlns="http://www.w3.org/2000/svg" xmlns:xlink="http://www.w3.org/1999/xlink" x="0px" y="0px"
	 width="284.417px" height="192.347px" viewBox="0 0 284.417 192.347" style="enable-background:new 0 0 284.417 192.347;"
	 xml:space="preserve">
<g id="_x32_6">
	<g>
		<path style="fill:#303679;" d="M225.127,99.454c-6.072,0-12.178-0.78-18.154-2.355c-18.908-4.981-36.284-16.439-48.928-32.262
			C144.414,47.778,137.208,27.087,137.208,5c0-2.761,2.239-5,5-5s5,2.239,5,5c0,19.794,6.448,38.327,18.648,53.595
			c11.312,14.155,26.818,24.396,43.662,28.834c29.439,7.755,56.84-7.812,65.338-26.685c1.134-2.519,4.096-3.64,6.612-2.507
			c2.519,1.135,3.641,4.095,2.507,6.612c-5.174,11.489-15.784,21.688-29.111,27.981C245.564,97.224,235.393,99.454,225.127,99.454z"
			/>
	</g>
</g>
<g id="Capa_1">
</g>
</svg>
