<?xml version="1.0" encoding="iso-8859-1"?>
<!-- Generator: Adobe Illustrator 16.0.0, SVG Export Plug-In . SVG Version: 6.00 Build 0)  -->
<!DOCTYPE svg PUBLIC "-//W3C//DTD SVG 1.1//EN" "http://www.w3.org/Graphics/SVG/1.1/DTD/svg11.dtd">
<svg version="1.1" xmlns="http://www.w3.org/2000/svg" xmlns:xlink="http://www.w3.org/1999/xlink" x="0px" y="0px"
	 width="284.417px" height="192.347px" viewBox="0 0 284.417 192.347" style="enable-background:new 0 0 284.417 192.347;"
	 xml:space="preserve">
<g id="_x32_9">
	<g>
		<path style="fill:#303679;" d="M222.209,90c-46.869,0-85-38.131-85-85c0-2.761,2.239-5,5-5s5,2.239,5,5c0,41.355,33.645,75,75,75
			c13.327,0,28.24-9.64,35.458-22.921c2.972-5.467,7.008-16.103,0.654-25.906c-1.502-2.317-0.842-5.413,1.476-6.915
			c2.319-1.504,5.414-0.841,6.915,1.476c6.697,10.332,6.603,23.498-0.259,36.121C257.446,78.426,239.252,90,222.209,90z"/>
	</g>
</g>
<g id="Capa_1">
</g>
</svg>
