<?xml version="1.0" encoding="utf-8"?>
<!-- Generator: Adobe Illustrator 16.0.0, SVG Export Plug-In . SVG Version: 6.00 Build 0)  -->
<!DOCTYPE svg PUBLIC "-//W3C//DTD SVG 1.1//EN" "http://www.w3.org/Graphics/SVG/1.1/DTD/svg11.dtd">
<svg version="1.1" id="Capa_1" xmlns="http://www.w3.org/2000/svg" xmlns:xlink="http://www.w3.org/1999/xlink" x="0px" y="0px"
	 width="165px" height="130px" viewBox="0 0 165 130" enable-background="new 0 0 165 130" xml:space="preserve">
<g>
	
		<line fill="none" stroke="#DFD9B2" stroke-width="5" stroke-linecap="round" stroke-miterlimit="10" x1="102.5" y1="107.5" x2="102.5" y2="112.5"/>
	
		<line fill="none" stroke="#DFD9B2" stroke-width="5" stroke-linecap="round" stroke-miterlimit="10" x1="62.5" y1="107.5" x2="62.5" y2="112.5"/>
	<path fill="none" stroke="#303679" stroke-width="5" stroke-linecap="round" stroke-miterlimit="10" d="M97.5,107.5
		c0,5.527-6.709,10-15,10"/>
	<path fill="none" stroke="#303679" stroke-width="5" stroke-linecap="round" stroke-miterlimit="10" d="M67.5,107.5
		c0,5.527,6.709,10,15,10"/>
	
		<circle fill="none" stroke="#FFFF00" stroke-width="10" stroke-linecap="round" stroke-miterlimit="10" cx="52.5" cy="62.5" r="10"/>
	
		<circle fill="none" stroke="#FFFF00" stroke-width="10" stroke-linecap="round" stroke-miterlimit="10" cx="112.5" cy="62.5" r="10"/>
	
		<line fill="none" stroke="#9B00D0" stroke-width="5" stroke-linecap="round" stroke-miterlimit="10" x1="72.5" y1="57.5" x2="92.5" y2="57.5"/>
	
		<line fill="none" stroke="#DFD9B2" stroke-width="5" stroke-linecap="round" stroke-miterlimit="10" x1="122.5" y1="92.5" x2="157.5" y2="92.5"/>
	
		<line fill="none" stroke="#606CF1" stroke-width="5" stroke-linecap="round" stroke-miterlimit="10" x1="77.5" y1="67.5" x2="87.5" y2="67.5"/>
	
		<line fill="none" stroke="#606CF1" stroke-width="5" stroke-linecap="round" stroke-miterlimit="10" x1="77.5" y1="27.5" x2="87.5" y2="27.5"/>
	
		<line fill="none" stroke="#DFD9B2" stroke-width="5" stroke-linecap="round" stroke-miterlimit="10" x1="132.5" y1="72.5" x2="157.5" y2="72.5"/>
	
		<line fill="none" stroke="#9B00D0" stroke-width="10" stroke-linecap="round" stroke-miterlimit="10" x1="82.505" y1="82.5" x2="82.662" y2="82.5"/>
	
		<line fill="none" stroke="#9B00D0" stroke-width="5" stroke-linecap="round" stroke-miterlimit="10" x1="57.5" y1="37.5" x2="107.5" y2="37.5"/>
	
		<line fill="none" stroke="#DFD9B2" stroke-width="5" stroke-linecap="round" stroke-miterlimit="10" x1="97.5" y1="82.5" x2="162.5" y2="82.5"/>
	
		<line fill="none" stroke="#DFD9B2" stroke-width="5" stroke-linecap="round" stroke-miterlimit="10" x1="42.5" y1="92.5" x2="7.5" y2="92.5"/>
	
		<line fill="none" stroke="#DFD9B2" stroke-width="5" stroke-linecap="round" stroke-miterlimit="10" x1="32.5" y1="72.5" x2="7.5" y2="72.5"/>
	
		<line fill="none" stroke="#DFD9B2" stroke-width="5" stroke-linecap="round" stroke-miterlimit="10" x1="67.5" y1="82.5" x2="2.5" y2="82.5"/>
	<path fill="none" stroke="#606CF1" stroke-width="5" stroke-linecap="round" stroke-miterlimit="10" d="M82.5,92.5
		c0,8.291,6.709,15,15,15"/>
	<path fill="none" stroke="#606CF1" stroke-width="5" stroke-linecap="round" stroke-miterlimit="10" d="M97.5,107.5
		c8.291,0,15-6.709,15-15"/>
	<path fill="none" stroke="#606CF1" stroke-width="5" stroke-linecap="round" stroke-miterlimit="10" d="M82.5,92.5
		c0,8.291-6.709,15-15,15"/>
	<path fill="none" stroke="#606CF1" stroke-width="5" stroke-linecap="round" stroke-miterlimit="10" d="M67.5,107.5
		c-8.291,0-15-6.709-15-15"/>
	<path fill="none" stroke="#303679" stroke-width="5" stroke-linecap="round" stroke-miterlimit="10" d="M62.5,122.5
		c5.267,3.172,13.403,5,20,5s14.733-1.828,20-5"/>
	<path fill="none" stroke="#606CF1" stroke-width="5" stroke-linecap="round" stroke-miterlimit="10" d="M67.5,27.5
		c0-13.818-8.945-25-20-25"/>
	<path fill="none" stroke="#606CF1" stroke-width="5" stroke-linecap="round" stroke-miterlimit="10" d="M37.5,47.5
		c0-24.873,4.473-45,10-45"/>
	<path fill="none" stroke="#606CF1" stroke-width="5" stroke-linecap="round" stroke-miterlimit="10" d="M97.5,27.5
		c0-13.818,8.945-25,20-25"/>
	<path fill="none" stroke="#606CF1" stroke-width="5" stroke-linecap="round" stroke-miterlimit="10" d="M127.5,47.5
		c0-24.873-4.473-45-10-45"/>
	<path fill="none" stroke="#303679" stroke-width="5" stroke-linecap="round" stroke-miterlimit="10" d="M107.5,27.5
		c0-8.291,4.473-15,10-15"/>
	<path fill="none" stroke="#303679" stroke-width="5" stroke-linecap="round" stroke-miterlimit="10" d="M57.5,27.5
		c0-8.291-4.473-15-10-15"/>
	<path fill="none" stroke="#303679" stroke-width="5" stroke-linecap="round" stroke-miterlimit="10" d="M102.5,122.5
		c0,0,15-20,45-20"/>
	<path fill="none" stroke="#303679" stroke-width="5" stroke-linecap="round" stroke-miterlimit="10" d="M62.5,122.5
		c0,0-15-20-45-20"/>
	<path fill="none" stroke="#606CF1" stroke-width="5" stroke-linecap="round" stroke-miterlimit="10" d="M127.5,47.5
		c0,8.291,11.709,15,20,15"/>
	<path fill="none" stroke="#606CF1" stroke-width="5" stroke-linecap="round" stroke-miterlimit="10" d="M37.5,47.5
		c0,8.291-6.709,15-15,15"/>
	
		<line fill="none" stroke="#606CF1" stroke-width="5" stroke-linecap="round" stroke-miterlimit="10" x1="67.5" y1="47.5" x2="97.5" y2="47.5"/>
</g>
</svg>
