<?xml version="1.0" encoding="iso-8859-1"?>
<!-- Generator: Adobe Illustrator 16.0.0, SVG Export Plug-In . SVG Version: 6.00 Build 0)  -->
<!DOCTYPE svg PUBLIC "-//W3C//DTD SVG 1.1//EN" "http://www.w3.org/Graphics/SVG/1.1/DTD/svg11.dtd">
<svg version="1.1" id="Capa_2" xmlns="http://www.w3.org/2000/svg" xmlns:xlink="http://www.w3.org/1999/xlink" x="0px" y="0px"
	 width="710px" height="709px" viewBox="0 0 710 709" style="enable-background:new 0 0 710 709;" xml:space="preserve">
<g>
	<g>
		<polygon style="fill:#00021F;" points="544.964,-0.256 580.922,699.288 531.078,700.712 527.036,0.256 		"/>
	</g>
	<g>
		<polygon style="fill:#00021F;" points="623.967,-0.014 650.02,697.95 579.98,698.05 604.033,0.014 		"/>
	</g>
	<g>
		<polygon style="fill:#00021F;" points="147.917,4.427 101.861,696.335 32.139,689.665 118.083,1.573 		"/>
	</g>
</g>
<g>
	<ellipse style="fill:#111A38;" cx="249" cy="664" rx="21" ry="16"/>
	
		<ellipse transform="matrix(0.9999 0.0102 -0.0102 0.9999 6.8568 -4.463)" style="fill:#111A38;" cx="440.793" cy="669.729" rx="35.793" ry="27.272"/>
	
		<ellipse transform="matrix(0.9714 -0.2373 0.2373 0.9714 -138.3586 150.7752)" style="fill:#111A38;" cx="557" cy="650" rx="21" ry="16"/>
	<ellipse style="fill:#111A38;" cx="224.054" cy="653.898" rx="11.946" ry="9.102"/>
	<ellipse style="fill:#111A38;" cx="185.054" cy="640.898" rx="8.835" ry="6.73"/>
	<ellipse style="fill:#111A38;" cx="396" cy="666.103" rx="11.946" ry="9.102"/>
	<ellipse style="fill:#111A38;" cx="586" cy="637.103" rx="11.946" ry="9.102"/>
	<g>
		<g>
			<path style="fill:#11132E;" d="M122.603,106.604c-12,15-22.499,23.999-29.999,38.998c-7.5,15-16.499,28.499-19.499,44.998
				c-3,17.999,3,31.498,4.5,49.497c0,18-6,37.499-6,56.998c-1.5,35.998,6,70.497,4.5,104.995c0,37.498-4.5,73.496,1.5,110.994
				c3,19.499,1.5,43.498,9,61.497c9,19.499,35.999,40.498,52.498,52.497c31.498,23.999,103.495,23.999,127.494,56.997
				c-22.499,22.499-112.495-5.999-142.493-11.999c-47.998-7.499-67.497-17.999-82.496-64.497c-15-46.497-9-109.494-10.5-157.492
				c-1.5-34.498-6-68.996-4.5-103.494c1.5-38.998,10.5-77.996,12-118.494c3-64.497-23.999-173.991,47.998-211.49
				c20.999-10.5,49.498-7.5,73.497-7.5c40.498,0,82.496,1.5,122.994,1.5c73.497,3,143.993-3,217.489-3
				c47.998,0,119.994-1.5,163.492,23.999c23.999,13.499,23.999,29.999,25.499,55.497c7.499,74.996,1.5,154.492,1.5,230.988
				c0,37.498-10.5,76.496-13.5,113.994c-5.999,41.998,0,85.496,0,127.494c0,53.997-11.999,110.994-71.996,110.994
				c-62.997,0-125.994,12-187.49,0c49.497,0,118.494-4.5,163.491-29.998c34.499-19.499,46.498-62.997,56.997-98.995
				c10.5-29.999,16.5-71.996,16.5-103.495c0-44.998,2.999-91.495-6-134.993c-9-38.998-9-70.497-12-110.995
				c-4.499-37.498,6-47.998-23.998-71.996c-15-10.5-23.999-25.499-35.998-37.498c-37.499-41.998-86.996-31.499-137.994-26.999
				c-47.997,4.5-94.495,15-142.492,18c-40.498,4.5-103.495-9-140.993,6c-10.5,3-16.499,10.5-23.999,16.499L122.603,106.604z"/>
		</g>
		<g>
			<path style="fill:#070929;" d="M268.095,681.075l-131.993-37.498l-61.497-47.998l-3-61.497l-13.5-3l10.5-55.497
				c0,0-7.5-16.499-7.5-20.999s7.5-56.996,7.5-62.996s-4.5-101.996-4.5-101.996s0-52.498,1.5-56.997s-1.5-62.997-1.5-62.997
				l23.999-41.998l59.997-64.497l113.994-1.5l124.494-6c0,0,73.496-7.5,77.996-7.5s86.995-9,92.995-7.5s56.998,40.498,56.998,40.498
				l26.998,70.497l10.5,49.497l-1.5,28.499l-7.5,64.497l6,83.996v32.998l-1.5,68.997l-1.5,50.997L639,583l-39,66l-107,22
				l159.076,26.574l46.497-316.484l-5.999-358.482l-670.467-3l7.5,676.466L268.095,681.075z"/>
			<path style="fill:#000214;" d="M-6.891-3.892v719.965h721.463V-3.892H-6.891z M668.575,502.584L650,584l-52,76l-214.037,8.179
				L325,675l-193.398-4.425l-65.997-49.497L41.606,484.585l10.5-308.985l61.497-131.993l274.486,1.5l158.992-17.999l59.997,22.499
				l62.997,155.992l-14.999,134.993L668.575,502.584z"/>
		</g>
	</g>
</g>
</svg>
