<?xml version="1.0" encoding="utf-8"?>
<!-- Generator: Adobe Illustrator 16.0.0, SVG Export Plug-In . SVG Version: 6.00 Build 0)  -->
<!DOCTYPE svg PUBLIC "-//W3C//DTD SVG 1.1//EN" "http://www.w3.org/Graphics/SVG/1.1/DTD/svg11.dtd">
<svg version="1.1" id="Capa_1" xmlns="http://www.w3.org/2000/svg" xmlns:xlink="http://www.w3.org/1999/xlink" x="0px" y="0px"
	 width="45px" height="30px" viewBox="0 0 45 30" enable-background="new 0 0 45 30" xml:space="preserve">
<g>
	
		<line fill="none" stroke="#DFD9B2" stroke-width="5" stroke-linecap="round" stroke-miterlimit="10" x1="7.5" y1="17.5" x2="7.5" y2="22.5"/>
	
		<line fill="none" stroke="#DFD9B2" stroke-width="5" stroke-linecap="round" stroke-miterlimit="10" x1="17.5" y1="22.5" x2="17.5" y2="27.5"/>
	
		<line fill="none" stroke="#DFD9B2" stroke-width="5" stroke-linecap="round" stroke-miterlimit="10" x1="27.5" y1="22.5" x2="27.5" y2="27.5"/>
	
		<line fill="none" stroke="#DFD9B2" stroke-width="5" stroke-linecap="round" stroke-miterlimit="10" x1="37.5" y1="22.5" x2="37.5" y2="27.5"/>
	<path fill="none" stroke="#303679" stroke-width="5" stroke-linecap="round" stroke-miterlimit="10" d="M22.5,17.5
		c0,2.762-2.238,5-5,5l0,0c-2.762,0-5-2.238-5-5v-10c0-2.762,2.238-5,5-5l0,0c2.762,0,5,2.238,5,5V17.5z"/>
	<path fill="none" stroke="#303679" stroke-width="5" stroke-linecap="round" stroke-miterlimit="10" d="M12.5,12.5
		c0,2.762-2.238,5-5,5l0,0c-2.762,0-5-2.238-5-5v-5c0-2.762,2.238-5,5-5l0,0c2.762,0,5,2.238,5,5V12.5z"/>
	<path fill="none" stroke="#303679" stroke-width="5" stroke-linecap="round" stroke-miterlimit="10" d="M32.5,17.5
		c0,2.762-2.238,5-5,5l0,0c-2.762,0-5-2.238-5-5v-10c0-2.762,2.238-5,5-5l0,0c2.762,0,5,2.238,5,5V17.5z"/>
	<path fill="none" stroke="#303679" stroke-width="5" stroke-linecap="round" stroke-miterlimit="10" d="M42.5,17.5
		c0,2.762-2.238,5-5,5l0,0c-2.762,0-5-2.238-5-5v-10c0-2.762,2.238-5,5-5l0,0c2.762,0,5,2.238,5,5V17.5z"/>
</g>
</svg>
