<?xml version="1.0" encoding="iso-8859-1"?>
<!-- Generator: Adobe Illustrator 16.0.0, SVG Export Plug-In . SVG Version: 6.00 Build 0)  -->
<!DOCTYPE svg PUBLIC "-//W3C//DTD SVG 1.1//EN" "http://www.w3.org/Graphics/SVG/1.1/DTD/svg11.dtd">
<svg version="1.1" xmlns="http://www.w3.org/2000/svg" xmlns:xlink="http://www.w3.org/1999/xlink" x="0px" y="0px"
	 width="201.666px" height="146.5px" viewBox="0 0 201.666 146.5" style="enable-background:new 0 0 201.666 146.5;"
	 xml:space="preserve">
<g id="_x32_1">
	<g>
		<path style="fill:#DFD9B2;" d="M57.833,141.5c-1.381,0-2.5-1.119-2.5-2.5v-5c0-1.381,1.119-2.5,2.5-2.5s2.5,1.119,2.5,2.5v5
			C60.333,140.381,59.214,141.5,57.833,141.5z"/>
	</g>
	<g>
		<path style="fill:#DFD9B2;" d="M47.833,146.5c-1.381,0-2.5-1.119-2.5-2.5v-5c0-1.381,1.119-2.5,2.5-2.5s2.5,1.119,2.5,2.5v5
			C50.333,145.381,49.214,146.5,47.833,146.5z"/>
	</g>
	<g>
		<path style="fill:#DFD9B2;" d="M37.833,146.5c-1.381,0-2.5-1.119-2.5-2.5v-5c0-1.381,1.119-2.5,2.5-2.5s2.5,1.119,2.5,2.5v5
			C40.333,145.381,39.214,146.5,37.833,146.5z"/>
	</g>
	<g>
		<path style="fill:#DFD9B2;" d="M27.833,146.5c-1.381,0-2.5-1.119-2.5-2.5v-5c0-1.381,1.119-2.5,2.5-2.5s2.5,1.119,2.5,2.5v5
			C30.333,145.381,29.214,146.5,27.833,146.5z"/>
	</g>
	<g>
		<path style="fill:#303679;" d="M47.833,141.5c-4.136,0-7.5-3.364-7.5-7.5v-10c0-4.136,3.364-7.5,7.5-7.5s7.5,3.364,7.5,7.5v10
			C55.333,138.136,51.969,141.5,47.833,141.5z M47.833,121.5c-1.378,0-2.5,1.121-2.5,2.5v10c0,1.379,1.122,2.5,2.5,2.5
			s2.5-1.121,2.5-2.5v-10C50.333,122.621,49.211,121.5,47.833,121.5z"/>
	</g>
	<g>
		<path style="fill:#303679;" d="M57.833,136.5c-4.136,0-7.5-3.364-7.5-7.5v-5c0-4.136,3.364-7.5,7.5-7.5s7.5,3.364,7.5,7.5v5
			C65.333,133.136,61.969,136.5,57.833,136.5z M57.833,121.5c-1.378,0-2.5,1.121-2.5,2.5v5c0,1.379,1.122,2.5,2.5,2.5
			s2.5-1.121,2.5-2.5v-5C60.333,122.621,59.211,121.5,57.833,121.5z"/>
	</g>
	<g>
		<path style="fill:#303679;" d="M37.833,141.5c-4.136,0-7.5-3.364-7.5-7.5v-10c0-4.136,3.364-7.5,7.5-7.5s7.5,3.364,7.5,7.5v10
			C45.333,138.136,41.969,141.5,37.833,141.5z M37.833,121.5c-1.378,0-2.5,1.121-2.5,2.5v10c0,1.379,1.122,2.5,2.5,2.5
			s2.5-1.121,2.5-2.5v-10C40.333,122.621,39.211,121.5,37.833,121.5z"/>
	</g>
	<g>
		<path style="fill:#303679;" d="M27.833,141.5c-4.136,0-7.5-3.364-7.5-7.5v-10c0-4.136,3.364-7.5,7.5-7.5s7.5,3.364,7.5,7.5v10
			C35.333,138.136,31.969,141.5,27.833,141.5z M27.833,121.5c-1.378,0-2.5,1.121-2.5,2.5v10c0,1.379,1.122,2.5,2.5,2.5
			s2.5-1.121,2.5-2.5v-10C30.333,122.621,29.211,121.5,27.833,121.5z"/>
	</g>
</g>
<g id="Capa_1">
</g>
</svg>
