<?xml version="1.0" encoding="iso-8859-1"?>
<!-- Generator: Adobe Illustrator 16.0.0, SVG Export Plug-In . SVG Version: 6.00 Build 0)  -->
<!DOCTYPE svg PUBLIC "-//W3C//DTD SVG 1.1//EN" "http://www.w3.org/Graphics/SVG/1.1/DTD/svg11.dtd">
<svg version="1.1" xmlns="http://www.w3.org/2000/svg" xmlns:xlink="http://www.w3.org/1999/xlink" x="0px" y="0px"
	 width="201.666px" height="146.5px" viewBox="0 0 201.666 146.5" style="enable-background:new 0 0 201.666 146.5;"
	 xml:space="preserve">
<g id="_x32_0">
	<g>
		<path style="fill:#DFD9B2;" d="M143.833,141.5c-1.381,0-2.5-1.119-2.5-2.5v-5c0-1.381,1.119-2.5,2.5-2.5s2.5,1.119,2.5,2.5v5
			C146.333,140.381,145.214,141.5,143.833,141.5z"/>
	</g>
	<g>
		<path style="fill:#DFD9B2;" d="M153.833,146.5c-1.381,0-2.5-1.119-2.5-2.5v-5c0-1.381,1.119-2.5,2.5-2.5s2.5,1.119,2.5,2.5v5
			C156.333,145.381,155.214,146.5,153.833,146.5z"/>
	</g>
	<g>
		<path style="fill:#DFD9B2;" d="M163.833,146.5c-1.381,0-2.5-1.119-2.5-2.5v-5c0-1.381,1.119-2.5,2.5-2.5s2.5,1.119,2.5,2.5v5
			C166.333,145.381,165.214,146.5,163.833,146.5z"/>
	</g>
	<g>
		<path style="fill:#DFD9B2;" d="M173.833,146.5c-1.381,0-2.5-1.119-2.5-2.5v-5c0-1.381,1.119-2.5,2.5-2.5s2.5,1.119,2.5,2.5v5
			C176.333,145.381,175.214,146.5,173.833,146.5z"/>
	</g>
	<g>
		<path style="fill:#303679;" d="M153.833,141.5c-4.136,0-7.5-3.364-7.5-7.5v-10c0-4.136,3.364-7.5,7.5-7.5s7.5,3.364,7.5,7.5v10
			C161.333,138.136,157.969,141.5,153.833,141.5z M153.833,121.5c-1.379,0-2.5,1.121-2.5,2.5v10c0,1.379,1.121,2.5,2.5,2.5
			s2.5-1.121,2.5-2.5v-10C156.333,122.621,155.212,121.5,153.833,121.5z"/>
	</g>
	<g>
		<path style="fill:#303679;" d="M143.833,136.5c-4.136,0-7.5-3.364-7.5-7.5v-5c0-4.136,3.364-7.5,7.5-7.5s7.5,3.364,7.5,7.5v5
			C151.333,133.136,147.969,136.5,143.833,136.5z M143.833,121.5c-1.379,0-2.5,1.121-2.5,2.5v5c0,1.379,1.121,2.5,2.5,2.5
			s2.5-1.121,2.5-2.5v-5C146.333,122.621,145.212,121.5,143.833,121.5z"/>
	</g>
	<g>
		<path style="fill:#303679;" d="M163.833,141.5c-4.136,0-7.5-3.364-7.5-7.5v-10c0-4.136,3.364-7.5,7.5-7.5s7.5,3.364,7.5,7.5v10
			C171.333,138.136,167.969,141.5,163.833,141.5z M163.833,121.5c-1.379,0-2.5,1.121-2.5,2.5v10c0,1.379,1.121,2.5,2.5,2.5
			s2.5-1.121,2.5-2.5v-10C166.333,122.621,165.212,121.5,163.833,121.5z"/>
	</g>
	<g>
		<path style="fill:#303679;" d="M173.833,141.5c-4.136,0-7.5-3.364-7.5-7.5v-10c0-4.136,3.364-7.5,7.5-7.5s7.5,3.364,7.5,7.5v10
			C181.333,138.136,177.969,141.5,173.833,141.5z M173.833,121.5c-1.379,0-2.5,1.121-2.5,2.5v10c0,1.379,1.121,2.5,2.5,2.5
			s2.5-1.121,2.5-2.5v-10C176.333,122.621,175.212,121.5,173.833,121.5z"/>
	</g>
</g>
<g id="Capa_1">
</g>
</svg>
