<?xml version="1.0" encoding="iso-8859-1"?>
<!-- Generator: Adobe Illustrator 16.0.0, SVG Export Plug-In . SVG Version: 6.00 Build 0)  -->
<!DOCTYPE svg PUBLIC "-//W3C//DTD SVG 1.1//EN" "http://www.w3.org/Graphics/SVG/1.1/DTD/svg11.dtd">
<svg version="1.1" xmlns="http://www.w3.org/2000/svg" xmlns:xlink="http://www.w3.org/1999/xlink" x="0px" y="0px"
	 width="201.666px" height="146.5px" viewBox="0 0 201.666 146.5" style="enable-background:new 0 0 201.666 146.5;"
	 xml:space="preserve">
<g id="_x31_9">
	<g>
		<path style="fill:#DFD9B2;" d="M37.5,47c-1.381,0-2.5-1.119-2.5-2.5v-5c0-1.381,1.119-2.5,2.5-2.5s2.5,1.119,2.5,2.5v5
			C40,45.881,38.881,47,37.5,47z"/>
	</g>
	<g>
		<path style="fill:#DFD9B2;" d="M27.5,52c-1.381,0-2.5-1.119-2.5-2.5v-5c0-1.381,1.119-2.5,2.5-2.5s2.5,1.119,2.5,2.5v5
			C30,50.881,28.881,52,27.5,52z"/>
	</g>
	<g>
		<path style="fill:#DFD9B2;" d="M17.5,52c-1.381,0-2.5-1.119-2.5-2.5v-5c0-1.381,1.119-2.5,2.5-2.5s2.5,1.119,2.5,2.5v5
			C20,50.881,18.881,52,17.5,52z"/>
	</g>
	<g>
		<path style="fill:#DFD9B2;" d="M7.5,52C6.119,52,5,50.881,5,49.5v-5C5,43.119,6.119,42,7.5,42s2.5,1.119,2.5,2.5v5
			C10,50.881,8.881,52,7.5,52z"/>
	</g>
	<g>
		<path style="fill:#303679;" d="M27.5,47c-4.136,0-7.5-3.364-7.5-7.5v-10c0-4.136,3.364-7.5,7.5-7.5s7.5,3.364,7.5,7.5v10
			C35,43.636,31.636,47,27.5,47z M27.5,27c-1.378,0-2.5,1.122-2.5,2.5v10c0,1.378,1.122,2.5,2.5,2.5s2.5-1.122,2.5-2.5v-10
			C30,28.122,28.878,27,27.5,27z"/>
	</g>
	<g>
		<path style="fill:#303679;" d="M37.5,42c-4.136,0-7.5-3.364-7.5-7.5v-5c0-4.136,3.364-7.5,7.5-7.5s7.5,3.364,7.5,7.5v5
			C45,38.636,41.636,42,37.5,42z M37.5,27c-1.378,0-2.5,1.122-2.5,2.5v5c0,1.378,1.122,2.5,2.5,2.5s2.5-1.122,2.5-2.5v-5
			C40,28.122,38.878,27,37.5,27z"/>
	</g>
	<g>
		<path style="fill:#303679;" d="M17.5,47c-4.136,0-7.5-3.364-7.5-7.5v-10c0-4.136,3.364-7.5,7.5-7.5s7.5,3.364,7.5,7.5v10
			C25,43.636,21.636,47,17.5,47z M17.5,27c-1.378,0-2.5,1.122-2.5,2.5v10c0,1.378,1.122,2.5,2.5,2.5s2.5-1.122,2.5-2.5v-10
			C20,28.122,18.878,27,17.5,27z"/>
	</g>
	<g>
		<path style="fill:#303679;" d="M7.5,47C3.364,47,0,43.636,0,39.5v-10C0,25.364,3.364,22,7.5,22s7.5,3.364,7.5,7.5v10
			C15,43.636,11.636,47,7.5,47z M7.5,27C6.122,27,5,28.122,5,29.5v10C5,40.878,6.122,42,7.5,42s2.5-1.122,2.5-2.5v-10
			C10,28.122,8.878,27,7.5,27z"/>
	</g>
</g>
<g id="Capa_1">
</g>
</svg>
