<?xml version="1.0" encoding="iso-8859-1"?>
<!-- Generator: Adobe Illustrator 16.0.0, SVG Export Plug-In . SVG Version: 6.00 Build 0)  -->
<!DOCTYPE svg PUBLIC "-//W3C//DTD SVG 1.1//EN" "http://www.w3.org/Graphics/SVG/1.1/DTD/svg11.dtd">
<svg version="1.1" xmlns="http://www.w3.org/2000/svg" xmlns:xlink="http://www.w3.org/1999/xlink" x="0px" y="0px"
	 width="201.666px" height="146.5px" viewBox="0 0 201.666 146.5" style="enable-background:new 0 0 201.666 146.5;"
	 xml:space="preserve">
<g id="_x31_7">
	<g>
		<path style="fill:#606CF1;" d="M85.833,30c-1.381,0-2.5-1.119-2.5-2.5c0-12.407-7.851-22.5-17.5-22.5c-1.381,0-2.5-1.119-2.5-2.5
			s1.119-2.5,2.5-2.5c12.407,0,22.5,12.336,22.5,27.5C88.333,28.881,87.214,30,85.833,30z"/>
	</g>
	<g>
		<path style="fill:#606CF1;" d="M55.833,50c-1.381,0-2.5-1.119-2.5-2.5c0-17.642,2.633-47.5,12.5-47.5c1.381,0,2.5,1.119,2.5,2.5
			S67.214,5,65.833,5c-2.104,0.593-7.5,14.114-7.5,42.5C58.333,48.881,57.214,50,55.833,50z"/>
	</g>
	<g>
		<path style="fill:#303679;" d="M75.833,30c-1.381,0-2.5-1.119-2.5-2.5c0-6.776-3.435-12.5-7.5-12.5c-1.381,0-2.5-1.119-2.5-2.5
			s1.119-2.5,2.5-2.5c7.009,0,12.5,7.687,12.5,17.5C78.333,28.881,77.214,30,75.833,30z"/>
	</g>
	<g>
		<path style="fill:#606CF1;" d="M40.833,65c-1.381,0-2.5-1.119-2.5-2.5s1.119-2.5,2.5-2.5c6.893,0,12.5-5.607,12.5-12.5
			c0-1.381,1.119-2.5,2.5-2.5s2.5,1.119,2.5,2.5C58.333,57.149,50.482,65,40.833,65z"/>
	</g>
</g>
<g id="Capa_1">
</g>
</svg>
