<?xml version="1.0" encoding="iso-8859-1"?>
<!-- Generator: Adobe Illustrator 16.0.0, SVG Export Plug-In . SVG Version: 6.00 Build 0)  -->
<!DOCTYPE svg PUBLIC "-//W3C//DTD SVG 1.1//EN" "http://www.w3.org/Graphics/SVG/1.1/DTD/svg11.dtd">
<svg version="1.1" xmlns="http://www.w3.org/2000/svg" xmlns:xlink="http://www.w3.org/1999/xlink" x="0px" y="0px"
	 width="201.666px" height="146.5px" viewBox="0 0 201.666 146.5" style="enable-background:new 0 0 201.666 146.5;"
	 xml:space="preserve">
<g id="_x31_6">
	<g>
		<path style="fill:#606CF1;" d="M115.833,30c-1.381,0-2.5-1.119-2.5-2.5c0-15.164,10.094-27.5,22.5-27.5c1.381,0,2.5,1.119,2.5,2.5
			s-1.119,2.5-2.5,2.5c-9.649,0-17.5,10.093-17.5,22.5C118.333,28.881,117.214,30,115.833,30z"/>
	</g>
	<g>
		<path style="fill:#606CF1;" d="M145.833,50c-1.381,0-2.5-1.119-2.5-2.5c0-28.387-5.396-41.907-7.542-42.504
			c-1.381,0-2.479-1.117-2.479-2.498c0-1.381,1.14-2.498,2.521-2.498c4.139,0,7.251,4.949,9.514,15.13
			c1.926,8.667,2.986,20.163,2.986,32.37C148.333,48.881,147.214,50,145.833,50z"/>
	</g>
	<g>
		<path style="fill:#303679;" d="M125.833,30c-1.381,0-2.5-1.119-2.5-2.5c0-9.813,5.49-17.5,12.5-17.5c1.381,0,2.5,1.119,2.5,2.5
			s-1.119,2.5-2.5,2.5c-4.065,0-7.5,5.724-7.5,12.5C128.333,28.881,127.214,30,125.833,30z"/>
	</g>
	<g>
		<path style="fill:#606CF1;" d="M165.833,65c-9.061,0-22.5-7.348-22.5-17.5c0-1.381,1.119-2.5,2.5-2.5s2.5,1.119,2.5,2.5
			c0,6.32,10.021,12.5,17.5,12.5c1.381,0,2.5,1.119,2.5,2.5S167.214,65,165.833,65z"/>
	</g>
</g>
<g id="Capa_1">
</g>
</svg>
