<?xml version="1.0" encoding="iso-8859-1"?>
<!-- Generator: Adobe Illustrator 16.0.0, SVG Export Plug-In . SVG Version: 6.00 Build 0)  -->
<!DOCTYPE svg PUBLIC "-//W3C//DTD SVG 1.1//EN" "http://www.w3.org/Graphics/SVG/1.1/DTD/svg11.dtd">
<svg version="1.1" xmlns="http://www.w3.org/2000/svg" xmlns:xlink="http://www.w3.org/1999/xlink" x="0px" y="0px"
	 width="201.666px" height="146.5px" viewBox="0 0 201.666 146.5" style="enable-background:new 0 0 201.666 146.5;"
	 xml:space="preserve">
<g id="_x30_3">
	<g>
		<path style="fill:#606CF1;" d="M85.833,110c-1.381,0-2.5-1.119-2.5-2.5s1.119-2.5,2.5-2.5c6.893,0,12.5-5.607,12.5-12.5
			c0-1.381,1.119-2.5,2.5-2.5s2.5,1.119,2.5,2.5C103.333,102.149,95.482,110,85.833,110z"/>
	</g>
	<g>
		<path style="fill:#606CF1;" d="M115.833,110c-9.649,0-17.5-7.851-17.5-17.5c0-1.381,1.119-2.5,2.5-2.5s2.5,1.119,2.5,2.5
			c0,6.893,5.607,12.5,12.5,12.5c1.381,0,2.5,1.119,2.5,2.5S117.214,110,115.833,110z"/>
	</g>
</g>
<g id="Capa_1">
</g>
</svg>
