<?xml version="1.0" encoding="iso-8859-1"?>
<!-- Generator: Adobe Illustrator 16.0.0, SVG Export Plug-In . SVG Version: 6.00 Build 0)  -->
<!DOCTYPE svg PUBLIC "-//W3C//DTD SVG 1.1//EN" "http://www.w3.org/Graphics/SVG/1.1/DTD/svg11.dtd">
<svg version="1.1" xmlns="http://www.w3.org/2000/svg" xmlns:xlink="http://www.w3.org/1999/xlink" x="0px" y="0px" width="30px"
	 height="30.986px" viewBox="0 0 30 30.986" style="enable-background:new 0 0 30 30.986;" xml:space="preserve">
<g id="_x30_4">
	<g>
		<path style="fill:#FFFF00;" d="M15.042,27.493C6.771,27.493,0,23.765,0,15.493C0,7.222,6.396,3.368,14.667,3.368
			C23.462,3.368,30,7.862,30,15.493C30,23.765,23.313,27.493,15.042,27.493z M15,10.493c-2.757,0-5,2.243-5,5s2.243,5,5,5
			s5-2.243,5-5S17.757,10.493,15,10.493z"/>
	</g>
	<path style="fill:none;stroke:#606CF1;stroke-miterlimit:10;" d="M2.458,7.004c6.916-4.681,18.168-4.682,25.084,0"/>
	<path style="fill:none;stroke:#606CF1;stroke-miterlimit:10;" d="M27.542,23.982c-6.916,4.681-18.168,4.682-25.084,0"/>
</g>
<g id="Capa_1">
</g>
</svg>
