<?xml version="1.0" encoding="iso-8859-1"?>
<!-- Generator: Adobe Illustrator 16.0.0, SVG Export Plug-In . SVG Version: 6.00 Build 0)  -->
<!DOCTYPE svg PUBLIC "-//W3C//DTD SVG 1.1//EN" "http://www.w3.org/Graphics/SVG/1.1/DTD/svg11.dtd">
<svg version="1.1" id="Capa_1" xmlns="http://www.w3.org/2000/svg" xmlns:xlink="http://www.w3.org/1999/xlink" x="0px" y="0px"
	 width="30px" height="30.986px" viewBox="0 0 30 30.986" style="enable-background:new 0 0 30 30.986;" xml:space="preserve">
<circle style="fill:#FFFF00;" cx="14.916" cy="12.948" r="1.84"/>
<g id="_x30_8">
	<g>
		<path style="fill:#FFFF00;" d="M1.319,17.395c0.216,0.327,0.45,0.641,0.708,0.933c3.703-1.888,8.039-3.142,12.367-3.41
			c-0.887-0.264-0.793-3.961,0.194-4.152C9.563,10.952,4.696,13.162,1.319,17.395z"/>
		<path style="fill:#FFFF00;" d="M15.227,10.745c1.076,0.115,1.343,3.814,0.537,4.123c4.435-0.059,8.783,0.961,12.352,3.43
			c0.414-0.498,0.388-0.58,0.678-1.18C24.913,13.168,20.216,10.728,15.227,10.745z"/>
	</g>
	<g style="display:none;">
		<path style="display:inline;fill:#FFFF00;" d="M15.042,25.618C10.417,25.618,0,23.765,0,15.493c0-8.271,13.917-8.875,14.667-8.875
			c2,0,15.333,1.244,15.333,8.875C30,23.765,20.292,25.618,15.042,25.618z M15,10.493c-2.757,0-5,2.243-5,5s2.243,5,5,5s5-2.243,5-5
			S17.757,10.493,15,10.493z"/>
	</g>
	<path style="fill:none;stroke:#606CF1;stroke-miterlimit:10;" d="M0,19.13c8.271-6.182,21.729-6.183,29.997-0.002"/>
	<path style="fill:none;stroke:#606CF1;stroke-miterlimit:10;" d="M0,19.13C8.271,8.449,21.729,8.447,29.997,19.127"/>
</g>
<g id="Capa_1_1_">
</g>
</svg>
