<?xml version="1.0" encoding="iso-8859-1"?>
<!-- Generator: Adobe Illustrator 16.0.0, SVG Export Plug-In . SVG Version: 6.00 Build 0)  -->
<!DOCTYPE svg PUBLIC "-//W3C//DTD SVG 1.1//EN" "http://www.w3.org/Graphics/SVG/1.1/DTD/svg11.dtd">
<svg version="1.1" xmlns="http://www.w3.org/2000/svg" xmlns:xlink="http://www.w3.org/1999/xlink" x="0px" y="0px" width="30px"
	 height="30.986px" viewBox="0 0 30 30.986" style="enable-background:new 0 0 30 30.986;" xml:space="preserve">
<g id="_x39_">
	<g>
		<path style="fill:#FFFF00;" d="M15.042,25.618C10.417,25.618,0,23.765,0,15.493c0-8.271,13.917-8.875,14.667-8.875
			c2,0,15.333,1.244,15.333,8.875C30,23.765,20.292,25.618,15.042,25.618z M15,10.493c-2.757,0-5,2.243-5,5s2.243,5,5,5s5-2.243,5-5
			S17.757,10.493,15,10.493z"/>
	</g>
	<path style="fill:none;stroke:#606CF1;stroke-miterlimit:10;" d="M1.583,11.13c7.398-5.849,19.436-5.849,26.834,0"/>
	<path style="fill:none;stroke:#606CF1;stroke-miterlimit:10;" d="M28.417,21.106c-7.398,5.849-19.436,5.849-26.834,0"/>
</g>
<g id="Capa_1">
</g>
</svg>
